<?xml version="1.0" encoding="UTF-8" standalone="no" ?>
<!DOCTYPE svg PUBLIC "-//W3C//DTD SVG 1.1//EN" "http://www.w3.org/Graphics/SVG/1.1/DTD/svg11.dtd">
<svg xmlns="http://www.w3.org/2000/svg" xmlns:xlink="http://www.w3.org/1999/xlink" version="1.1" width="1080" height="1080" viewBox="0 0 1080 1080" xml:space="preserve">
<desc>Created with Fabric.js 5.2.4</desc>
<defs>
</defs>
<g transform="matrix(1 0 0 1 540 540)" id="231d52ff-9225-4178-a9c5-d49f0c5a3a81"  >
<rect style="stroke: none; stroke-width: 1; stroke-dasharray: none; stroke-linecap: butt; stroke-dashoffset: 0; stroke-linejoin: miter; stroke-miterlimit: 4; fill: rgb(255,255,255); fill-rule: nonzero; opacity: 1; visibility: hidden;" vector-effect="non-scaling-stroke"  x="-540" y="-540" rx="0" ry="0" width="1080" height="1080" />
</g>
<g transform="matrix(1 0 0 1 540 540)" id="bfed2c75-5c20-4a05-b29d-48f57c7a37e6"  >
</g>
<g transform="matrix(1 0 0 1 540 540)" id="30ab9ce1-376c-45e2-b420-88170a824391"  >
<path style="stroke: rgb(0,0,0); stroke-width: 0; stroke-dasharray: none; stroke-linecap: butt; stroke-dashoffset: 0; stroke-linejoin: miter; stroke-miterlimit: 4; fill: rgb(154,160,166); fill-rule: nonzero; opacity: 1;" vector-effect="non-scaling-stroke"  transform=" translate(-480, 480)" d="M 453 -280 L 513 -280 L 513 -446 L 680 -446 L 680 -506 L 513 -506 L 513 -680 L 453 -680 L 453 -506 L 280 -506 L 280 -446 L 453 -446 L 453 -280 Z M 480.266 -80 Q 397.53200000000004 -80 324.766 -111.5 Q 252 -143 197.5 -197.5 Q 143 -252 111.5 -324.841 Q 80 -397.681 80 -480.5 Q 80 -563.319 111.5 -636.159 Q 143 -709 197.5 -763 Q 252 -817 324.841 -848.5 Q 397.681 -880 480.5 -880 Q 563.319 -880 636.159 -848.5 Q 709 -817 763 -763 Q 817 -709 848.5 -636 Q 880 -563 880 -480.266 Q 880 -397.53200000000004 848.5 -324.766 Q 817 -252 763 -197.684 Q 709 -143.368 636 -111.684 Q 563 -80 480.266 -80 Z M 480.5 -140 Q 622 -140 721 -239.5 Q 820 -339 820 -480.5 Q 820 -622 721.188 -721 Q 622.375 -820 480 -820 Q 339 -820 239.5 -721.188 Q 140 -622.375 140 -480 Q 140 -339 239.5 -239.5 Q 339 -140 480.5 -140 Z M 480 -480 Z" stroke-linecap="round" />
</g>
<g transform="matrix(NaN NaN NaN NaN 0 0)"  >
<g style=""   >
</g>
</g>
</svg>