<?xml version="1.0" encoding="UTF-8" standalone="no" ?>
<!DOCTYPE svg PUBLIC "-//W3C//DTD SVG 1.1//EN" "http://www.w3.org/Graphics/SVG/1.1/DTD/svg11.dtd">
<svg xmlns="http://www.w3.org/2000/svg" xmlns:xlink="http://www.w3.org/1999/xlink" version="1.1" width="1080" height="1080" viewBox="0 0 1080 1080" xml:space="preserve">
<desc>Created with Fabric.js 5.2.4</desc>
<defs>
</defs>
<rect x="0" y="0" width="100%" height="100%" fill="transparent"></rect>
<g transform="matrix(1 0 0 1 540 540)" id="a0ae6664-800c-4076-952f-a8ede15c3236"  >
<rect style="stroke: none; stroke-width: 1; stroke-dasharray: none; stroke-linecap: butt; stroke-dashoffset: 0; stroke-linejoin: miter; stroke-miterlimit: 4; fill: rgb(255,255,255); fill-rule: nonzero; opacity: 1; visibility: hidden;" vector-effect="non-scaling-stroke"  x="-540" y="-540" rx="0" ry="0" width="1080" height="1080" />
</g>
<g transform="matrix(1 0 0 1 540 540)" id="bf2986ad-6cd8-44ac-b76b-5bf0086c6680"  >
</g>
<g transform="matrix(0 0 0 0 0 0)"  >
<g style=""   >
</g>
</g>
<g transform="matrix(1 0 0 1 540 540)"  >
<path style="stroke: rgb(0,0,0); stroke-width: 0; stroke-dasharray: none; stroke-linecap: butt; stroke-dashoffset: 0; stroke-linejoin: miter; stroke-miterlimit: 4; fill: rgb(154,160,166); fill-rule: nonzero; opacity: 1;" vector-effect="non-scaling-stroke"  transform=" translate(-482.37, 479.75)" d="M 123 -584 Q 119 -586 119 -590.5 Q 119 -595 121 -599 Q 183 -685 278 -732 Q 373 -779 481 -779 Q 589 -779 684.5 -733 Q 780 -687 843 -601 Q 846 -596 845.5 -593 Q 845 -590 842 -587 Q 839 -584 834.5 -584 Q 830 -584 826 -589 Q 767 -671 675.5 -715 Q 584 -759 481 -759 Q 378 -759 288 -714.5 Q 198 -670 138 -589 Q 134 -584 130.5 -583 Q 127 -582 123 -584 Z M 600 -81 Q 497 -107 430.5 -184 Q 364 -261 364 -371 Q 364 -418 398.5 -450 Q 433 -482 481 -482 Q 529 -482 563.5 -450 Q 598 -418 598 -371 Q 598 -333 627.5 -307 Q 657 -281 696 -281 Q 734 -281 762.5 -307 Q 791 -333 791 -371 Q 791 -494 699.5 -577 Q 608 -660 481 -660 Q 354 -660 262.5 -577 Q 171 -494 171 -371 Q 171 -347 176.5 -308.5 Q 182 -270 200 -221 Q 202 -216 200 -213.5 Q 198 -211 195 -209 Q 191 -207 186.5 -208 Q 182 -209 180 -214 Q 167 -252 159.5 -291.5 Q 152 -331 152 -371 Q 152 -500 250 -591.5 Q 348 -683 481 -683 Q 617 -683 714.5 -593 Q 812 -503 812 -371 Q 812 -325 778 -293 Q 744 -261 696 -261 Q 647 -261 612 -293 Q 577 -325 577 -371 Q 577 -410 548.5 -436 Q 520 -462 481 -462 Q 442 -462 413 -436 Q 384 -410 384 -371 Q 384 -267 447 -197.5 Q 510 -128 604 -100 Q 610 -98 611.5 -95 Q 613 -92 612 -88 Q 611 -83 608 -81 Q 605 -79 600 -81 Z M 247 -801 Q 242 -799 239.5 -800.5 Q 237 -802 235 -805 Q 233 -807 233 -811 Q 233 -815 236 -817 Q 293 -848 355.5 -864 Q 418 -880 481 -880 Q 546 -880 608.5 -864 Q 671 -848 728 -819 Q 733 -817 733.5 -813 Q 734 -809 732 -806 Q 730 -803 726.5 -801 Q 723 -799 718 -801 Q 663 -828 603 -843.5 Q 543 -859 481 -859 Q 419 -859 360 -844.5 Q 301 -830 247 -801 Z M 381 -92 Q 323 -152 290.5 -218 Q 258 -284 258 -371 Q 258 -460 323.5 -521 Q 389 -582 481 -582 Q 573 -582 639.5 -521 Q 706 -460 706 -371 Q 706 -366 703.5 -363.5 Q 701 -361 696 -361 Q 691 -361 688 -363.5 Q 685 -366 685 -371 Q 685 -452 624.5 -507 Q 564 -562 481 -562 Q 398 -562 338.5 -507 Q 279 -452 279 -371 Q 279 -286 308.5 -226 Q 338 -166 396 -106 Q 400 -102 399.5 -98.5 Q 399 -95 396 -92 Q 394 -90 389.5 -88.5 Q 385 -87 381 -92 Z M 687 -165 Q 599 -165 534.5 -223.5 Q 470 -282 470 -371 Q 470 -376 472.5 -379 Q 475 -382 480 -382 Q 485 -382 487.5 -379 Q 490 -376 490 -371 Q 490 -290 549.5 -237.5 Q 609 -185 687 -185 Q 695 -185 706 -186 Q 717 -187 730 -189 Q 735 -190 738 -187.5 Q 741 -185 742 -182 Q 743 -178 741.5 -175 Q 740 -172 735 -171 Q 717 -166 703.5 -165.5 Q 690 -165 687 -165 Z" stroke-linecap="round" />
</g>
<g transform="matrix(NaN NaN NaN NaN 0 0)"  >
<g style=""   >
</g>
</g>
</svg>