<?xml version="1.0" encoding="UTF-8" standalone="no" ?>
<!DOCTYPE svg PUBLIC "-//W3C//DTD SVG 1.1//EN" "http://www.w3.org/Graphics/SVG/1.1/DTD/svg11.dtd">
<svg xmlns="http://www.w3.org/2000/svg" xmlns:xlink="http://www.w3.org/1999/xlink" version="1.1" width="1080" height="1080" viewBox="0 0 1080 1080" xml:space="preserve">
<desc>Created with Fabric.js 5.2.4</desc>
<defs>
</defs>
<rect x="0" y="0" width="100%" height="100%" fill="transparent"></rect>
<g transform="matrix(1 0 0 1 540 540)" id="231d52ff-9225-4178-a9c5-d49f0c5a3a81"  >
<rect style="stroke: none; stroke-width: 1; stroke-dasharray: none; stroke-linecap: butt; stroke-dashoffset: 0; stroke-linejoin: miter; stroke-miterlimit: 4; fill: rgb(255,255,255); fill-rule: nonzero; opacity: 1; visibility: hidden;" vector-effect="non-scaling-stroke"  x="-540" y="-540" rx="0" ry="0" width="1080" height="1080" />
</g>
<g transform="matrix(1 0 0 1 540 540)" id="bfed2c75-5c20-4a05-b29d-48f57c7a37e6"  >
</g>
<g transform="matrix(NaN NaN NaN NaN 0 0)"  >
<g style=""   >
</g>
</g>
<g transform="matrix(NaN NaN NaN NaN 0 0)"  >
<g style=""   >
</g>
</g>
<g transform="matrix(1 0 0 1 540 540)" id="cd7d643b-5865-41cd-9239-98367b720af7"  >
<path style="stroke: rgb(0,0,0); stroke-width: 0; stroke-dasharray: none; stroke-linecap: butt; stroke-dashoffset: 0; stroke-linejoin: miter; stroke-miterlimit: 4; fill: rgb(154,160,166); fill-rule: nonzero; opacity: 1;" vector-effect="non-scaling-stroke"  transform=" translate(-480, 480)" d="M 280 -453 L 680 -453 L 680 -513 L 280 -513 L 280 -453 Z M 480 -80 Q 398 -80 325 -111.5 Q 252 -143 197.5 -197.5 Q 143 -252 111.5 -325 Q 80 -398 80 -480 Q 80 -563 111.5 -636 Q 143 -709 197.5 -763 Q 252 -817 325 -848.5 Q 398 -880 480 -880 Q 563 -880 636 -848.5 Q 709 -817 763 -763 Q 817 -709 848.5 -636 Q 880 -563 880 -480 Q 880 -398 848.5 -325 Q 817 -252 763 -197.5 Q 709 -143 636 -111.5 Q 563 -80 480 -80 Z M 480 -140 Q 622 -140 721 -239.5 Q 820 -339 820 -480 Q 820 -622 721 -721 Q 622 -820 480 -820 Q 339 -820 239.5 -721 Q 140 -622 140 -480 Q 140 -339 239.5 -239.5 Q 339 -140 480 -140 Z M 480 -480 Z" stroke-linecap="round" />
</g>
<g transform="matrix(NaN NaN NaN NaN 0 0)"  >
<g style=""   >
</g>
</g>
</svg>