<?xml version="1.0" encoding="UTF-8" standalone="no" ?>
<!DOCTYPE svg PUBLIC "-//W3C//DTD SVG 1.1//EN" "http://www.w3.org/Graphics/SVG/1.1/DTD/svg11.dtd">
<svg xmlns="http://www.w3.org/2000/svg" xmlns:xlink="http://www.w3.org/1999/xlink" version="1.1" width="1080" height="1080" viewBox="0 0 1080 1080" xml:space="preserve">
<desc>Created with Fabric.js 5.2.4</desc>
<defs>
</defs>
<rect x="0" y="0" width="100%" height="100%" fill="transparent"></rect>
<g transform="matrix(1 0 0 1 540 540)" id="bf2986ad-6cd8-44ac-b76b-5bf0086c6680"  >
</g>
<g transform="matrix(1 0 0 1 540 540)" id="a0ae6664-800c-4076-952f-a8ede15c3236"  >
<rect style="stroke: none; stroke-width: 1; stroke-dasharray: none; stroke-linecap: butt; stroke-dashoffset: 0; stroke-linejoin: miter; stroke-miterlimit: 4; fill: rgb(255,255,255); fill-rule: nonzero; opacity: 1; visibility: hidden;" vector-effect="non-scaling-stroke"  x="-540" y="-540" rx="0" ry="0" width="1080" height="1080" />
</g>
<g transform="matrix(0 0 0 0 0 0)"  >
<g style=""   >
</g>
</g>
<g transform="matrix(0 0 0 0 0 0)"  >
<g style=""   >
</g>
</g>
<g transform="matrix(0 0 0 0 0 0)"  >
<g style=""   >
</g>
</g>
<g transform="matrix(0 0 0 0 0 0)"  >
<g style=""   >
</g>
</g>
<g transform="matrix(1 0 0 1 540 540)"  >
<path style="stroke: rgb(0,0,0); stroke-width: 0; stroke-dasharray: none; stroke-linecap: butt; stroke-dashoffset: 0; stroke-linejoin: miter; stroke-miterlimit: 4; fill: rgb(154,160,166); fill-rule: nonzero; opacity: 1;" vector-effect="non-scaling-stroke"  transform=" translate(-480, 480)" d="M 360 -200 Q 338 -200 320 -211.5 Q 302 -223 289 -241 L 120 -480 L 289 -719 Q 302 -737 320 -748.5 Q 338 -760 360 -760 L 780 -760 Q 804.75 -760 822.375 -742.375 Q 840 -724.75 840 -700 L 840 -260 Q 840 -235.25 822.375 -217.625 Q 804.75 -200 780 -200 L 360 -200 Z M 780 -260 L 780 -700 L 780 -260 Z M 349 -260 L 780 -260 L 780 -700 L 349 -700 L 195 -480 L 349 -260 Z M 448 -326 L 560 -438 L 672 -326 L 715 -369 L 602 -480 L 713 -591 L 670 -634 L 560 -522 L 448 -634 L 405 -591 L 518 -480 L 405 -369 L 448 -326 Z" stroke-linecap="round" />
</g>
<g transform="matrix(NaN NaN NaN NaN 0 0)"  >
<g style=""   >
</g>
</g>
<g transform="matrix(NaN NaN NaN NaN 0 0)"  >
<g style=""   >
</g>
</g>
</svg>