<?xml version="1.0" encoding="UTF-8" standalone="no" ?>
<!DOCTYPE svg PUBLIC "-//W3C//DTD SVG 1.1//EN" "http://www.w3.org/Graphics/SVG/1.1/DTD/svg11.dtd">
<svg xmlns="http://www.w3.org/2000/svg" xmlns:xlink="http://www.w3.org/1999/xlink" version="1.1" width="1080" height="1080" viewBox="0 0 1080 1080" xml:space="preserve">
<desc>Created with Fabric.js 5.2.4</desc>
<defs>
</defs>
<rect x="0" y="0" width="100%" height="100%" fill="transparent"></rect>
<g transform="matrix(1 0 0 1 540 540)" id="231d52ff-9225-4178-a9c5-d49f0c5a3a81"  >
<rect style="stroke: none; stroke-width: 1; stroke-dasharray: none; stroke-linecap: butt; stroke-dashoffset: 0; stroke-linejoin: miter; stroke-miterlimit: 4; fill: rgb(255,255,255); fill-rule: nonzero; opacity: 1; visibility: hidden;" vector-effect="non-scaling-stroke"  x="-540" y="-540" rx="0" ry="0" width="1080" height="1080" />
</g>
<g transform="matrix(1 0 0 1 540 540)" id="bfed2c75-5c20-4a05-b29d-48f57c7a37e6"  >
</g>
<g transform="matrix(NaN NaN NaN NaN 0 0)"  >
<g style=""   >
</g>
</g>
<g transform="matrix(NaN NaN NaN NaN 0 0)"  >
<g style=""   >
</g>
</g>
<g transform="matrix(NaN NaN NaN NaN 0 0)"  >
<g style=""   >
</g>
</g>
<g transform="matrix(NaN NaN NaN NaN 0 0)"  >
<g style=""   >
</g>
</g>
<g transform="matrix(NaN NaN NaN NaN 0 0)"  >
<g style=""   >
</g>
</g>
<g transform="matrix(NaN NaN NaN NaN 0 0)"  >
<g style=""   >
</g>
</g>
<g transform="matrix(NaN NaN NaN NaN 0 0)"  >
<g style=""   >
</g>
</g>
<g transform="matrix(1 0 0 1 540 540)" id="94b69acc-283d-4e35-b10b-05b033e1ad9b"  >
<path style="stroke: rgb(0,0,0); stroke-width: 0; stroke-dasharray: none; stroke-linecap: butt; stroke-dashoffset: 0; stroke-linejoin: miter; stroke-miterlimit: 4; fill: rgb(154,160,166); fill-rule: nonzero; opacity: 1;" vector-effect="non-scaling-stroke"  transform=" translate(-480, 480)" d="M 388 -80 L 368 -206 Q 349 -213 328 -225 Q 307 -237 291 -250 L 173 -196 L 80 -360 L 188 -439 Q 186 -448 185.5 -459.5 Q 185 -471 185 -480 Q 185 -489 185.5 -500.5 Q 186 -512 188 -521 L 80 -600 L 173 -764 L 291 -710 Q 307 -723 328 -735 Q 349 -747 368 -753 L 388 -880 L 572 -880 L 592 -754 Q 611 -747 632.5 -735.5 Q 654 -724 669 -710 L 787 -764 L 880 -600 L 772 -523 Q 774 -513 774.5 -501.5 Q 775 -490 775 -480 Q 775 -470 774.5 -459 Q 774 -448 772 -438 L 880 -360 L 787 -196 L 669 -250 Q 653 -237 632.5 -224.5 Q 612 -212 592 -206 L 572 -80 L 388 -80 Z M 480 -350 Q 534 -350 572 -388 Q 610 -426 610 -480 Q 610 -534 572 -572 Q 534 -610 480 -610 Q 426 -610 388 -572 Q 350 -534 350 -480 Q 350 -426 388 -388 Q 426 -350 480 -350 Z M 480 -410 Q 451 -410 430.5 -430.5 Q 410 -451 410 -480 Q 410 -509 430.5 -529.5 Q 451 -550 480 -550 Q 509 -550 529.5 -529.5 Q 550 -509 550 -480 Q 550 -451 529.5 -430.5 Q 509 -410 480 -410 Z M 480 -480 Z M 436 -140 L 524 -140 L 538 -252 Q 571 -260 600.5 -277 Q 630 -294 654 -318 L 760 -272 L 800 -344 L 706 -413 Q 710 -430 712.5 -446.5 Q 715 -463 715 -480 Q 715 -497 713 -513.5 Q 711 -530 706 -547 L 800 -616 L 760 -688 L 654 -642 Q 631 -668 602 -685.5 Q 573 -703 538 -708 L 524 -820 L 436 -820 L 422 -708 Q 388 -701 358.5 -684 Q 329 -667 306 -642 L 200 -688 L 160 -616 L 254 -547 Q 250 -530 247.5 -513.5 Q 245 -497 245 -480 Q 245 -463 247.5 -446.5 Q 250 -430 254 -413 L 160 -344 L 200 -272 L 306 -318 Q 330 -294 359.5 -277 Q 389 -260 422 -252 L 436 -140 Z" stroke-linecap="round" />
</g>
<g transform="matrix(NaN NaN NaN NaN 0 0)"  >
<g style=""   >
</g>
</g>
</svg>